<?xml version="1.0" encoding="UTF-8"?>
<svg id="Layer_2" data-name="Layer 2" xmlns="http://www.w3.org/2000/svg" viewBox="0 0 1258.73 1278.8">
  <defs>
    <style>
      .cls-1 {
        fill: #fff;
      }

      .cls-2 {
        fill: none;
        stroke: #fff;
        stroke-miterlimit: 10;
        stroke-width: 10px;
      }
    </style>
  </defs>
  <g id="Layer_1-2" data-name="Layer 1">
    <g>
      <path class="cls-2" d="M501.4,496.61c4.56-56.07,11.63-108.95,20.81-157.4-.79.05-1.59.1-2.38.15-55.22,3.57-110.71,8.49-166.12,15.3-16.6,46.92-29.31,97.74-37.43,151.36,0,0,0,0,0,0,61.71-4.26,123.47-7.24,185.11-9.4Z"/>
      <path class="cls-2" d="M502.65,808.71c-61.25-1.97-122.62-4.76-183.93-8.83,9.15,54.01,22.97,105,40.74,151.84,55.2,6.55,110.54,11.21,165.62,14.47-9.75-48.23-17.37-101.16-22.44-157.48Z"/>
      <path class="cls-2" d="M538.27,966.95c-4.39-.24-8.79-.49-13.19-.77,0,0,0,0,0,0,12.6,62.33,28.77,116.79,47.6,160.54,37.35,2.49,74.83,3.95,112.35,4.34v-159.5c-48.99-.35-97.94-1.9-146.76-4.61Z"/>
      <path class="cls-2" d="M495.49,652.71c-63.18.07-126.36.15-189.55.21.4,50.76,4.82,99.99,12.77,146.95,61.31,4.07,122.68,6.86,183.93,8.83-4.47-49.67-6.95-101.97-7.16-156Z"/>
      <path class="cls-2" d="M1053.33,502.91h0c7.08,45.65,10.83,93.35,10.83,142.43,0,2.19-.01,4.38-.03,6.57h0c30.32-.03,60.63-.07,90.94-.09,32.87-.03,65.73-.07,98.6-.08.02-2.13.04-4.26.04-6.4,0-43.59-4.44-86.09-12.88-127.03-30.98-3.23-61.98-6.06-93-8.6-31.48-2.58-62.98-4.84-94.52-6.81Z"/>
      <path class="cls-2" d="M844.56,968.29c-53.14,2.6-106.35,3.65-159.52,3.28v159.5c37.11.38,74.25-.27,111.35-2.03,0,0,0,0,0,0,19.04-43.65,35.41-98.2,48.17-160.75,0,0,0,0,0,0Z"/>
      <path class="cls-2" d="M867.34,809.65s0,0,0,0c61.32-1.79,122.6-4.61,183.81-8.55,8.14-47.64,12.63-97.63,12.98-149.18-63.18.07-126.37.16-189.55.25-.19,54.56-2.71,107.37-7.24,157.49Z"/>
      <path class="cls-2" d="M1053.33,502.91h0c-61.54-3.85-123.15-6.56-184.8-8.22,3.96,48.13,6.08,98.61,6.08,150.65,0,2.28,0,4.55-.01,6.83,63.18-.09,126.37-.18,189.55-.25.01-2.19.03-4.38.03-6.57,0-49.08-3.75-96.79-10.83-142.43Z"/>
      <path class="cls-2" d="M796.39,1129.04c39.85-1.86,79.66-4.98,119.32-9.38,0,0,0,0,0,0,37.27-45.11,69.07-100.88,93.56-164.42-54.74,6.06-109.69,10.37-164.71,13.05-12.77,62.55-29.13,117.1-48.17,160.75Z"/>
      <path class="cls-2" d="M522.21,339.2c11.66-61.5,26.72-115.84,44.37-160.44-17.34,1.26-34.65,2.75-51.94,4.46-25.61,2.54-51.26,5.56-76.9,9.12-33.69,45.74-62.22,100.66-84.03,162.29,55.4-6.81,110.9-11.73,166.12-15.3.79-.05,1.59-.1,2.38-.15Z"/>
      <path class="cls-2" d="M867.34,809.65c-5.14,56.78-12.88,110.11-22.78,158.63,55.02-2.68,109.97-6.99,164.71-13.05,18.29-47.45,32.5-99.23,41.88-154.13-61.2,3.94-122.49,6.76-183.81,8.55,0,0,0,0,0,0Z"/>
      <path class="cls-2" d="M495.48,645.34c0-51.35,2.06-101.18,5.92-148.74-61.64,2.17-123.4,5.15-185.11,9.4,0,0,0,0,0,0-6.77,44.71-10.37,91.36-10.37,139.33,0,2.53.01,5.06.03,7.58,63.18-.07,126.36-.14,189.55-.21,0-2.45-.01-4.91-.01-7.37Z"/>
      <path class="cls-2" d="M535.4,809.69c-10.91-.3-21.83-.63-32.75-.98,0,0,0,0,0,0,5.07,56.32,12.69,109.25,22.44,157.48,0,0,0,0,0,0,4.4.27,8.8.52,13.19.77,48.83,2.71,97.78,4.27,146.76,4.61v-159.57c-49.9-.15-99.79-.92-149.63-2.31Z"/>
      <path class="cls-2" d="M685.04,652.44v159.56c60.77.19,121.55-.57,182.31-2.34,4.54-50.12,7.05-102.92,7.24-157.49h0c-63.18.08-126.35.18-189.54.27Z"/>
      <path class="cls-2" d="M535.4,809.69c49.85,1.38,99.73,2.16,149.63,2.31v-159.56c-63.18.09-126.36.19-189.54.27h0c.21,54.03,2.69,106.33,7.16,156,0,0,0,0,0,0,10.92.35,21.84.68,32.75.98Z"/>
      <path class="cls-2" d="M685.04,812v159.57c53.17.37,106.39-.68,159.52-3.28,0,0,0,0,0,0,9.9-48.52,17.64-101.85,22.78-158.63-60.76,1.77-121.54,2.53-182.31,2.34Z"/>
      <path class="cls-2" d="M522.21,339.2c54.16-3.46,108.47-5.49,162.83-6.01v-159.51c-39.56.51-79.07,2.22-118.46,5.09,0,0,0,0,0,0-17.65,44.6-32.71,98.94-44.37,160.44,0,0,0,0,0,0Z"/>
      <path class="cls-2" d="M685.04,652.44v-159.66c-52.98.3-105.94,1.31-158.87,3-8.25.26-16.51.54-24.77.83,0,0,0,0,0,0-3.86,47.55-5.92,97.39-5.92,148.74,0,2.46,0,4.91.01,7.37h0c63.18-.08,126.36-.18,189.54-.27Z"/>
      <path class="cls-2" d="M526.17,495.77c52.92-1.69,105.89-2.7,158.87-3v-159.59c-54.36.52-108.67,2.56-162.83,6.01,0,0,0,0,0,0-9.18,48.45-16.26,101.33-20.81,157.4,0,0,0,0,0,0,8.26-.29,16.52-.57,24.77-.83Z"/>
      <path class="cls-2" d="M1014.46,349.33c-22.61-62.39-52.15-117.74-86.97-163.44-41.6-4.8-83.37-8.19-125.2-10.19h0c17.89,44.44,33.17,98.83,45.02,160.51,55.85,2.64,111.6,6.98,167.16,13.12Z"/>
      <path class="cls-2" d="M847.3,336.21h0c-11.85-61.68-27.13-116.07-45.02-160.51h0c-39.06-1.87-78.17-2.53-117.24-2.02v159.51c54.08-.52,108.21.46,162.26,3.02Z"/>
      <path class="cls-2" d="M847.3,336.21c-54.05-2.56-108.18-3.54-162.26-3.02v159.59c61.16-.35,122.34.26,183.48,1.91,0,0,0,0,0,0-4.66-56.51-11.87-109.77-21.22-158.48h0Z"/>
      <path class="cls-2" d="M868.52,494.69c61.65,1.66,123.26,4.37,184.8,8.22h0c-8.45-54.51-21.66-106.09-38.87-153.58-55.55-6.14-111.31-10.48-167.16-13.12,9.36,48.71,16.57,101.97,21.22,158.48Z"/>
      <path class="cls-2" d="M685.04,492.78v159.66c63.19-.09,126.36-.19,189.54-.27h0c0-2.27.01-4.55.01-6.83,0-52.04-2.11-102.52-6.08-150.65,0,0,0,0,0,0-61.14-1.65-122.32-2.26-183.48-1.91Z"/>
      <path class="cls-2" d="M359.46,951.71c23.81,62.74,54.71,118.03,90.96,163.11,30.63,3.95,61.28,7.14,91.87,9.65,10.11.83,20.24,1.58,30.38,2.26h0c-18.83-43.75-35-98.21-47.6-160.54-55.08-3.26-110.42-7.93-165.62-14.47Z"/>
      <path class="cls-2" d="M572.69,1126.72h0c-10.14-.68-20.27-1.43-30.38-2.26-30.59-2.5-61.25-5.7-91.87-9.65,64.54,80.26,146.03,128.15,234.61,128.15-42.06,0-80.91-43.19-112.35-116.25Z"/>
      <path class="cls-2" d="M572.69,1126.72c31.44,73.06,70.3,116.25,112.35,116.25v-111.91c-37.52-.39-75-1.85-112.35-4.34Z"/>
      <path class="cls-2" d="M915.71,1119.66s0,0,0,0c-39.66,4.41-79.47,7.53-119.32,9.38-31.26,71.66-69.74,113.93-111.35,113.93,86.79,0,166.77-45.98,230.68-123.32Z"/>
      <path class="cls-2" d="M796.39,1129.04s0,0,0,0c-37.1,1.76-74.24,2.41-111.35,2.03v111.91c41.61,0,80.09-42.27,111.35-113.93Z"/>
      <path class="cls-2" d="M359.46,951.71c-17.78-46.84-31.6-97.83-40.74-151.84,0,0,0,0,0,0-62.52-4.16-124.99-9.64-187.21-16.95,11.09,49.46,28.02,96.54,49.99,140.4,58.88,12.06,118.35,21.31,177.96,28.38,0,0,0,0,0,0Z"/>
      <path class="cls-2" d="M450.42,1114.82s0,0,0,0c-36.25-45.08-67.15-100.36-90.96-163.11,0,0,0,0,0,0-59.61-7.07-119.09-16.32-177.96-28.38,31.56,63.01,73.52,119.37,123.48,166.56,48.16,10.43,96.76,18.64,145.44,24.92h0Z"/>
      <path class="cls-2" d="M450.42,1114.82s0,0,0,0h0c-48.67-6.28-97.27-14.49-145.44-24.92,100.72,95.16,233.95,153.08,380.06,153.08-88.59,0-170.07-47.9-234.61-128.15Z"/>
      <path class="cls-2" d="M1155.08,651.82c-30.32.03-60.63.07-90.94.09h0c-.35,51.56-4.85,101.55-12.98,149.18,0,0,0,0,0,0,35.13-2.25,70.24-4.87,105.31-7.88,27.19-2.33,54.36-4.89,81.52-7.74,9.82-42.96,15.23-87.73,15.69-133.74-32.87.02-65.73.06-98.6.08Z"/>
      <path class="cls-2" d="M1051.16,801.1s0,0,0,0c-9.38,54.91-23.59,106.69-41.88,154.13,0,0,0,0,0,0,51.26-5.66,102.35-12.85,153.16-21.65,7.68-1.33,15.35-2.7,23.02-4.11,23.11-44.85,40.91-93.16,52.54-144-27.16,2.85-54.34,5.41-81.52,7.74-35.07,3.01-70.18,5.63-105.31,7.88Z"/>
      <path class="cls-2" d="M685.04,1242.97c141.66,0,271.22-54.44,370.77-144.49-46.39,8.92-93.14,15.95-140.1,21.17-63.9,77.34-143.88,123.32-230.68,123.32Z"/>
      <path class="cls-2" d="M1009.28,955.23s0,0,0,0c-24.49,63.55-56.29,119.32-93.56,164.42,46.96-5.22,93.71-12.25,140.1-21.17,52.39-47.39,96.48-104.64,129.65-169.01-7.67,1.41-15.34,2.78-23.02,4.11-50.81,8.8-101.9,15.99-153.16,21.65Z"/>
      <path class="cls-2" d="M1014.46,349.33s0,0,0,0c17.21,47.5,30.41,99.07,38.87,153.58h0c31.54,1.97,63.04,4.23,94.52,6.81,31.02,2.54,62.02,5.37,93,8.6-10.36-50.29-26.75-98.23-48.32-142.93-15.75-2.91-31.53-5.66-47.32-8.23-43.41-7.09-87.01-13.02-130.74-17.83Z"/>
      <path class="cls-2" d="M802.28,175.7h0c-32.26-80.16-72.98-127.99-117.24-127.99v125.97c39.07-.51,78.18.15,117.24,2.02Z"/>
      <path class="cls-2" d="M802.28,175.7h0c41.83,2,83.6,5.39,125.2,10.19-65.72-86.27-150.24-138.17-242.45-138.17,44.26,0,84.98,47.83,117.24,127.99Z"/>
      <path class="cls-2" d="M566.57,178.77s0,0,0,0c39.39-2.87,78.9-4.58,118.46-5.09V47.71c-44.82,0-86.01,49.05-118.46,131.06Z"/>
      <path class="cls-2" d="M927.49,185.88s0,0,.01,0c48.95,5.66,97.67,13.3,145.97,22.97-101.65-99.95-238.24-161.14-388.44-161.14,92.21,0,176.73,51.9,242.45,138.17Z"/>
      <path class="cls-2" d="M927.49,185.88c34.82,45.7,64.36,101.05,86.97,163.44,0,0,0,0,0,0,43.74,4.81,87.34,10.74,130.74,17.83,15.8,2.58,31.57,5.32,47.32,8.23-30.25-62.67-70.69-118.99-119.05-166.53-48.31-9.67-97.03-17.31-145.97-22.97,0,0,0,0-.01,0Z"/>
      <path class="cls-2" d="M305.95,652.92c-.02-2.52-.03-5.05-.03-7.58,0-47.98,3.59-94.63,10.37-139.33-62.81,4.33-125.57,9.99-188.09,17.46-7.76,39.35-11.84,80.11-11.84,121.87,0,2.57.02,5.15.05,7.71,63.18-.02,126.35-.07,189.54-.13h0Z"/>
      <path class="cls-2" d="M353.71,354.65s0,0,0,0c-60.42,7.41-120.7,17.06-180.35,29.6-20.23,43.69-35.54,90.37-45.17,139.22,62.52-7.47,125.28-13.13,188.09-17.46,8.12-53.62,20.83-104.44,37.43-151.36Z"/>
      <path class="cls-2" d="M437.74,192.35c25.64-3.57,51.29-6.58,76.9-9.12,17.28-1.71,34.59-3.2,51.94-4.46,32.45-82,73.64-131.06,118.46-131.06-94.49,0-180.91,54.5-247.3,144.64Z"/>
      <path class="cls-2" d="M318.72,799.88c-7.95-46.96-12.37-96.19-12.77-146.95h0c-63.19.07-126.36.11-189.54.13.54,44.64,5.74,88.1,15.11,129.87,62.22,7.31,124.68,12.79,187.21,16.95,0,0,0,0,0,0Z"/>
      <path class="cls-2" d="M437.74,192.35c66.39-90.14,152.8-144.64,247.3-144.64-155.83,0-297.02,65.88-399.74,172.57,50.45-11.67,101.42-20.86,152.43-27.92,0,0,0,0,0,0Z"/>
      <path class="cls-2" d="M353.71,354.65c21.81-61.64,50.34-116.55,84.03-162.29,0,0,0,0,0,0-51.01,7.07-101.98,16.25-152.43,27.92-45.58,47.35-83.59,102.73-111.94,163.97,59.64-12.54,119.93-22.18,180.35-29.6,0,0,0,0,0,0Z"/>
    </g>
    <path class="cls-1" d="M901.85,1278.8c-30.93-31.21-214.38-222.36-197.36-500.27,18.58-303.27,273.71-488.21,276.06-486.36,1.71,1.35-111.05,118.39-130.57,296.52-5,45.59-12.58,124.46,34.25,170.34,36.55,35.81,89.19,34.82,127.92,33.53,120.55-4,205.92-73.4,210.01-66.75,6.01,9.75-209.82,106.85-291.26,302.55-37.69,90.56-37.7,180.87-29.05,250.43Z"/>
    <path class="cls-1" d="M1143.82,652.97c-18.96,73.17-91.34,116.49-161.68,96.78-70.34-19.72-111.99-95.02-93.04-168.18,18.96-73.17,91.34-116.49,161.68-96.78,70.34,19.72,111.99,95.02,93.04,168.18Z"/>
    <path class="cls-1" d="M961.78,1264.1c-10.1-31.55-35.92-125.89,1.8-230.62,54.24-150.6,216.04-207.08,215.65-207.66-.27-.4-72.86,34.88-102.09,111.1-5.87,15.31-19.81,53.1-2.7,80.62,4.94,7.95,13.72,17.27,43.26,28.12,58.28,21.42,106.87,15.68,107.25,19.69.61,6.45-127.74-3.44-202.79,69.37-41.35,40.12-55.01,94.19-60.38,129.37Z"/>
    <path class="cls-1" d="M1232.21,974.68c-11.87,33.18-47.35,50.06-79.25,37.71-31.89-12.35-48.13-49.25-36.25-82.43,11.87-33.18,47.35-50.06,79.25-37.71,31.89,12.35,48.13,49.25,36.25,82.43Z"/>
    <path class="cls-1" d="M268.63,1101.46C26.39,865.66,15.66,468.15,244.66,213.59,376.88,66.62,560.12-.56,738,14.29c-201.32-45.52-420.93,17.96-573.03,187.04-229.01,254.56-218.27,652.07,23.97,887.87,102.38,99.66,229.72,154.47,359.93,165.34-101.79-23.01-198.9-73.89-280.24-153.08Z"/>
  </g>
</svg>