<svg width="41" height="41" viewBox="0 0 41 41" fill="none" xmlns="http://www.w3.org/2000/svg">
<g clip-path="url(#clip0_91_83)">
<path d="M34.1838 26.2742C32.0825 26.2742 30.0496 25.9325 28.1533 25.3175C27.5554 25.1125 26.8892 25.2663 26.4279 25.7275L23.7458 29.0929C18.9112 26.7867 14.3842 22.4304 11.9754 17.425L15.3067 14.5892C15.7679 14.1108 15.9046 13.4446 15.7167 12.8467C15.0846 10.9504 14.76 8.9175 14.76 6.81625C14.76 5.89375 13.9913 5.125 13.0688 5.125H7.15792C6.23542 5.125 5.125 5.535 5.125 6.81625C5.125 22.6867 18.3304 35.875 34.1838 35.875C35.3967 35.875 35.875 34.7988 35.875 33.8592V27.9654C35.875 27.0429 35.1063 26.2742 34.1838 26.2742Z" fill="white"/>
</g>
<defs>
<clipPath id="clip0_91_83">
<rect width="41" height="41" fill="white"/>
</clipPath>
</defs>
</svg>
